<svg xmlns="http://www.w3.org/2000/svg" viewBox="0 0 1200 630" width="1200" height="630">
  <defs>
    <linearGradient id="bg" x1="0" y1="0" x2="1" y2="1">
      <stop offset="0" stop-color="#111A33"/><stop offset="0.55" stop-color="#08090B"/><stop offset="1" stop-color="#160E18"/>
    </linearGradient>
    <linearGradient id="acc" x1="0" y1="0" x2="1" y2="0">
      <stop offset="0" stop-color="#8FB0FF"/><stop offset="1" stop-color="#3B6BF5"/>
    </linearGradient>
    <radialGradient id="halo" cx="0.25" cy="0.1" r="0.7">
      <stop offset="0" stop-color="#3B6BF5" stop-opacity="0.32"/><stop offset="1" stop-color="#3B6BF5" stop-opacity="0"/>
    </radialGradient>
  </defs>
  <rect width="1200" height="630" fill="url(#bg)"/>
  <rect width="1200" height="630" fill="url(#halo)"/>
  <g font-family="Helvetica,Arial,sans-serif">
    <text x="80" y="196" fill="#8FB0FF" font-size="24" letter-spacing="7">ABONNEMENT IPTV — FRANCE</text>
    <text x="80" y="290" fill="#FFFFFF" font-size="76" font-weight="700" letter-spacing="-2">IPTV Abonnement France</text>
    <text x="80" y="360" fill="#FFFFFF" font-size="46" font-weight="700" letter-spacing="-1" opacity="0.72">Profitez de la TV en streaming</text>
    <text x="80" y="430" fill="#8C93A4" font-size="26">Smart TV · Fire TV · Android · Apple · PC · Smartphone</text>
    <text x="80" y="556" fill="#5C6274" font-size="22" letter-spacing="3">iptvabonnementfrance.store</text>
  </g>
  <rect x="80" y="470" width="150" height="5" rx="2.5" fill="url(#acc)"/>
  <g transform="translate(830,190)">
    <rect x="0" y="0" width="300" height="190" rx="14" fill="#161A24" stroke="#2A3040" stroke-width="2"/>
    <rect x="14" y="14" width="272" height="140" rx="8" fill="#0C1020"/>
    <rect x="28" y="30" width="150" height="10" rx="5" fill="#3B6BF5" opacity="0.8"/>
    <rect x="28" y="50" width="90" height="8" rx="4" fill="#39415A"/>
    <rect x="28" y="86" width="52" height="54" rx="5" fill="#2C3E6E"/>
    <rect x="88" y="86" width="52" height="54" rx="5" fill="#3A2A4E"/>
    <rect x="148" y="86" width="52" height="54" rx="5" fill="#1F4053"/>
    <rect x="208" y="86" width="52" height="54" rx="5" fill="#4A2836"/>
    <rect x="120" y="166" width="60" height="8" rx="4" fill="#2A3040"/>
  </g>
  <rect x="0" y="618" width="400" height="12" fill="#3B6BF5"/>
  <rect x="400" y="618" width="400" height="12" fill="#E8EAF0"/>
  <rect x="800" y="618" width="400" height="12" fill="#E2405A"/>
</svg>
